<svg xmlns="http://www.w3.org/2000/svg" xmlns:xlink="http://www.w3.org/1999/xlink" preserveAspectRatio="xMidYMid" style="shape-rendering: auto; display: block; background: transparent;" viewBox="30.34 30.5 39.31 38.91"><g><g transform="rotate(0 50 50)">
  <rect fill="#b1b1b1" height="1" width="5" ry="0" rx="0" y="30.5" x="47.5">
    <animate repeatCount="indefinite" begin="-0.6020469596628537s" dur="0.6622516556291391s" keyTimes="0;1" values="1;0" attributeName="opacity"/>
  </rect>
</g><g transform="rotate(32.72727272727273 50 50)">
  <rect fill="#b1b1b1" height="1" width="5" ry="0" rx="0" y="30.5" x="47.5">
    <animate repeatCount="indefinite" begin="-0.5418422636965684s" dur="0.6622516556291391s" keyTimes="0;1" values="1;0" attributeName="opacity"/>
  </rect>
</g><g transform="rotate(65.45454545454545 50 50)">
  <rect fill="#b1b1b1" height="1" width="5" ry="0" rx="0" y="30.5" x="47.5">
    <animate repeatCount="indefinite" begin="-0.481637567730283s" dur="0.6622516556291391s" keyTimes="0;1" values="1;0" attributeName="opacity"/>
  </rect>
</g><g transform="rotate(98.18181818181819 50 50)">
  <rect fill="#b1b1b1" height="1" width="5" ry="0" rx="0" y="30.5" x="47.5">
    <animate repeatCount="indefinite" begin="-0.42143287176399763s" dur="0.6622516556291391s" keyTimes="0;1" values="1;0" attributeName="opacity"/>
  </rect>
</g><g transform="rotate(130.9090909090909 50 50)">
  <rect fill="#b1b1b1" height="1" width="5" ry="0" rx="0" y="30.5" x="47.5">
    <animate repeatCount="indefinite" begin="-0.3612281757977122s" dur="0.6622516556291391s" keyTimes="0;1" values="1;0" attributeName="opacity"/>
  </rect>
</g><g transform="rotate(163.63636363636363 50 50)">
  <rect fill="#b1b1b1" height="1" width="5" ry="0" rx="0" y="30.5" x="47.5">
    <animate repeatCount="indefinite" begin="-0.30102347983142685s" dur="0.6622516556291391s" keyTimes="0;1" values="1;0" attributeName="opacity"/>
  </rect>
</g><g transform="rotate(196.36363636363637 50 50)">
  <rect fill="#b1b1b1" height="1" width="5" ry="0" rx="0" y="30.5" x="47.5">
    <animate repeatCount="indefinite" begin="-0.2408187838651415s" dur="0.6622516556291391s" keyTimes="0;1" values="1;0" attributeName="opacity"/>
  </rect>
</g><g transform="rotate(229.0909090909091 50 50)">
  <rect fill="#b1b1b1" height="1" width="5" ry="0" rx="0" y="30.5" x="47.5">
    <animate repeatCount="indefinite" begin="-0.1806140878988561s" dur="0.6622516556291391s" keyTimes="0;1" values="1;0" attributeName="opacity"/>
  </rect>
</g><g transform="rotate(261.8181818181818 50 50)">
  <rect fill="#b1b1b1" height="1" width="5" ry="0" rx="0" y="30.5" x="47.5">
    <animate repeatCount="indefinite" begin="-0.12040939193257075s" dur="0.6622516556291391s" keyTimes="0;1" values="1;0" attributeName="opacity"/>
  </rect>
</g><g transform="rotate(294.54545454545456 50 50)">
  <rect fill="#b1b1b1" height="1" width="5" ry="0" rx="0" y="30.5" x="47.5">
    <animate repeatCount="indefinite" begin="-0.060204695966285374s" dur="0.6622516556291391s" keyTimes="0;1" values="1;0" attributeName="opacity"/>
  </rect>
</g><g transform="rotate(327.27272727272725 50 50)">
  <rect fill="#b1b1b1" height="1" width="5" ry="0" rx="0" y="30.5" x="47.5">
    <animate repeatCount="indefinite" begin="0s" dur="0.6622516556291391s" keyTimes="0;1" values="1;0" attributeName="opacity"/>
  </rect>
</g><g/></g><!-- [ldio] generated by https://loading.io --></svg>